<?xml version="1.0" encoding="iso-8859-1"?>
<!-- Generator: Adobe Illustrator 21.0.0, SVG Export Plug-In . SVG Version: 6.00 Build 0)  -->
<svg version="1.1" id="Capa_1" xmlns="http://www.w3.org/2000/svg" xmlns:xlink="http://www.w3.org/1999/xlink" x="0px" y="0px"
	 viewBox="0 0 512 512" style="enable-background:new 0 0 512 512;" xml:space="preserve">
<g id="XMLID_752_">
	<g id="XMLID_753_">
		<g id="XMLID_754_">
			<g id="XMLID_755_">
				<g id="XMLID_756_">
					<g id="XMLID_757_">
						<g id="XMLID_758_">
							<g id="XMLID_759_">
								<g id="XMLID_760_">
									<path style="fill:#93A3AF;" d="M161,146.625v13H82v-13c0-5.523,4.477-10,10-10h59C156.523,136.625,161,141.102,161,146.625
										z"/>
									<path style="fill:#93A3AF;" d="M252,450.625v-13h-39v13c0,5.523,4.477,10,10,10h19
										C247.523,460.625,252,456.147,252,450.625z"/>
									<path style="fill:#93A3AF;" d="M181,450.625v-13H82v13c0,5.523,4.477,10,10,10h79C176.523,460.625,181,456.147,181,450.625
										z"/>
									<path style="fill:#93A3AF;" d="M314,450.625v-13h-39v13c0,5.523,4.477,10,10,10h19
										C309.523,460.625,314,456.147,314,450.625z"/>
									<path id="XMLID_761_" style="fill:#7B8C98;" d="M504.5,177.043v243.16c0,11.05-8.95,20-20,20h-457c-11.05,0-20-8.95-20-20
										v-243.16c0-11.05,8.95-20,20-20h457C495.55,157.043,504.5,165.993,504.5,177.043z"/>
									<path id="XMLID_762_" style="fill:#627687;" d="M504.5,177.043v243.16c0,11.05-8.95,20-20,20H467c11.05,0,20-8.95,20-20
										v-243.16c0-11.05-8.95-20-20-20h17.5C495.55,157.043,504.5,165.993,504.5,177.043z"/>
									<rect id="XMLID_763_" x="58" y="157.043" style="fill:#FAAA3C;" width="396" height="283.16"/>
									
										<rect x="303.918" y="290.125" transform="matrix(6.123234e-17 -1 1 6.123234e-17 146.8755 744.1245)" style="fill:#E79732;" width="283.163" height="17"/>
								</g>
							</g>
						</g>
					</g>
				</g>
			</g>
		</g>
		<g id="XMLID_764_">
			<path id="XMLID_765_" style="fill:#5F9EEB;" d="M402.289,71.375v224.79c0,2.05-0.63,4.04-1.8,5.72l-32.14,46.09
				c-3.98,5.71-12.43,5.71-16.41,0l-32.14-46.09c-1.17-1.68-1.8-3.67-1.8-5.72V71.375c0-11.05,8.95-20,20-20h44.29
				C393.339,51.375,402.289,60.325,402.289,71.375z"/>
			<path id="XMLID_766_" style="fill:#3A82D0;" d="M402.293,71.375v224.79c0,2.05-0.63,4.04-1.8,5.72l-32.14,46.09
				c-3.98,5.71-12.43,5.71-16.41,0l-1.29-1.86l30.84-44.23c1.17-1.68,1.8-3.67,1.8-5.72V71.375c0-11.05-8.95-20-20-20h19
				C393.343,51.375,402.293,60.325,402.293,71.375z"/>
			<path id="XMLID_767_" style="fill:#ED7A98;" d="M402.293,71.375v29.13h-84.29v-29.13c0-11.05,8.95-20,20-20h44.29
				C393.343,51.375,402.293,60.325,402.293,71.375z"/>
			<path id="XMLID_768_" style="fill:#EB5777;" d="M402.293,71.375v29.13h-19v-29.13c0-11.05-8.95-20-20-20h19
				C393.343,51.375,402.293,60.325,402.293,71.375z"/>
			<rect id="XMLID_769_" x="318.003" y="95.015" style="fill:#D3D8DF;" width="84.29" height="30.37"/>
			<rect id="XMLID_770_" x="383.293" y="95.015" style="fill:#C2C6CC;" width="19" height="30.37"/>
			<path id="XMLID_771_" style="fill:#7B8C98;" d="M402.293,287.475v8.69c0,2.05-0.63,4.04-1.8,5.72l-32.14,46.09
				c-3.98,5.71-12.43,5.71-16.41,0l-1.29-1.86l-30.85-44.23c-1.17-1.68-1.8-3.67-1.8-5.72v-8.69H402.293z"/>
			<path id="XMLID_772_" style="fill:#627687;" d="M383.293,287.475h19v8.69c0,2.05-0.63,4.04-1.8,5.72l-32.14,46.09
				c-3.98,5.71-12.43,5.71-16.41,0l-1.29-1.86l30.84-44.23c1.17-1.68,1.8-3.67,1.8-5.72V287.475z"/>
		</g>
		<g id="XMLID_773_">
			<path style="fill:#EBEEF2;" d="M239.002,303.958h-96.667c-5.523,0-10-4.477-10-10v-96.667c0-5.523,4.477-10,10-10h96.667
				c5.523,0,10,4.477,10,10v96.667C249.002,299.481,244.525,303.958,239.002,303.958z"/>
		</g>
	</g>
	<g id="XMLID_774_">
		<path id="XMLID_775_" d="M349.67,432.706H65.5V164.543h172.17c4.143,0,7.5-3.357,7.5-7.5s-3.357-7.5-7.5-7.5H168.5v-2.918
			c0-9.649-7.851-17.5-17.5-17.5H92c-9.649,0-17.5,7.851-17.5,17.5v2.918h-47c-15.164,0-27.5,12.337-27.5,27.5v243.163
			c0,15.163,12.336,27.5,27.5,27.5h47v2.919c0,9.649,7.851,17.5,17.5,17.5h79c9.649,0,17.5-7.851,17.5-17.5v-2.919h17v2.919
			c0,9.649,7.851,17.5,17.5,17.5h19c9.649,0,17.5-7.851,17.5-17.5v-2.919h8v2.919c0,9.649,7.851,17.5,17.5,17.5h19
			c9.649,0,17.5-7.851,17.5-17.5v-2.919h28.17c4.143,0,7.5-3.357,7.5-7.5S353.813,432.706,349.67,432.706z M89.5,146.625
			c0-1.379,1.121-2.5,2.5-2.5h59c1.379,0,2.5,1.121,2.5,2.5v2.918h-64V146.625z M15,420.206V177.043c0-6.893,5.607-12.5,12.5-12.5
			h23v268.163h-23C20.607,432.706,15,427.099,15,420.206z M173.5,450.625c0,1.379-1.121,2.5-2.5,2.5H92c-1.379,0-2.5-1.121-2.5-2.5
			v-2.919h84V450.625z M244.5,450.625c0,1.379-1.121,2.5-2.5,2.5h-19c-1.379,0-2.5-1.121-2.5-2.5v-2.919h24V450.625z M306.5,450.625
			c0,1.379-1.121,2.5-2.5,2.5h-19c-1.379,0-2.5-1.121-2.5-2.5v-2.919h24V450.625z"/>
		<path id="XMLID_782_" d="M484.5,149.543h-74.711V71.375c0-15.163-12.337-27.5-27.5-27.5h-44.29c-15.163,0-27.5,12.337-27.5,27.5
			v78.168H270.33c-4.143,0-7.5,3.357-7.5,7.5s3.357,7.5,7.5,7.5h40.169v131.623c0,3.59,1.087,7.05,3.147,10.01l32.14,46.088
			c3.271,4.692,8.638,7.494,14.357,7.494c0,0,0,0,0.001,0c5.72,0,11.087-2.801,14.357-7.492l32.143-46.095
			c2.058-2.955,3.145-6.415,3.145-10.005V224.33c0-4.143-3.357-7.5-7.5-7.5s-7.5,3.357-7.5,7.5v55.646h-27.146v-147.09h27.146
			v58.784c0,4.143,3.357,7.5,7.5,7.5s7.5-3.357,7.5-7.5v-27.127H446.5v268.163h-64.17c-4.143,0-7.5,3.357-7.5,7.5s3.357,7.5,7.5,7.5
			H484.5c15.164,0,27.5-12.337,27.5-27.5V177.043C512,161.88,499.664,149.543,484.5,149.543z M337.999,58.875h44.29
			c6.893,0,12.5,5.607,12.5,12.5v16.141h-69.29V71.375C325.499,64.482,331.106,58.875,337.999,58.875z M394.789,296.166
			c0,0.511-0.157,1.007-0.452,1.43l-32.14,46.091c-0.65,0.933-1.565,1.071-2.053,1.071c0,0,0,0-0.001,0
			c-0.487,0-1.401-0.139-2.052-1.072l-32.138-46.085c-0.298-0.428-0.455-0.924-0.455-1.435v-1.19h69.29V296.166z M352.644,279.976
			h-27.145v-147.09h27.145V279.976z M325.499,117.886v-15.37h69.29v15.37H325.499z M497,420.206c0,6.893-5.607,12.5-12.5,12.5h-23
			V164.543h23c6.893,0,12.5,5.607,12.5,12.5V420.206z"/>
		<path id="XMLID_789_" d="M34.333,271.543c-4.143,0-7.5,3.357-7.5,7.5v39.163c0,4.143,3.357,7.5,7.5,7.5s7.5-3.357,7.5-7.5v-39.163
			C41.833,274.9,38.476,271.543,34.333,271.543z"/>
		<path id="XMLID_790_" d="M142.335,179.791c-9.649,0-17.5,7.851-17.5,17.5v96.667c0,9.649,7.851,17.5,17.5,17.5h96.667
			c9.649,0,17.5-7.851,17.5-17.5v-96.667c0-9.649-7.851-17.5-17.5-17.5H142.335z M241.502,197.291v96.667c0,1.379-1.121,2.5-2.5,2.5
			h-96.667c-1.379,0-2.5-1.121-2.5-2.5v-96.667c0-1.379,1.121-2.5,2.5-2.5h96.667C240.381,194.791,241.502,195.912,241.502,197.291z
			"/>
		<path id="XMLID_793_" d="M206.189,241.078c2.488-3.569,3.952-7.902,3.952-12.573c0-12.156-9.891-22.047-22.047-22.047h-14.546
			c-4.143,0-7.5,3.357-7.5,7.5v63.333c0,4.143,3.357,7.5,7.5,7.5h17.119c13.575,0,24.62-11.045,24.62-24.62
			C215.288,252.476,211.737,245.596,206.189,241.078z M181.049,221.458h7.046c3.886,0,7.047,3.161,7.047,7.047
			s-3.161,7.047-7.047,7.047h-7.046V221.458z M190.668,269.791h-9.619v-19.239h7.046h2.573c5.305,0,9.62,4.315,9.62,9.619
			C200.288,265.476,195.973,269.791,190.668,269.791z"/>
		<path id="XMLID_798_" d="M306.387,329.791H118.54c-4.143,0-7.5,3.357-7.5,7.5s3.357,7.5,7.5,7.5h187.847
			c4.143,0,7.5-3.357,7.5-7.5S310.529,329.791,306.387,329.791z"/>
		<path id="XMLID_810_" d="M323.314,352.758H118.54c-4.143,0-7.5,3.357-7.5,7.5s3.357,7.5,7.5,7.5h204.774
			c4.143,0,7.5-3.357,7.5-7.5S327.457,352.758,323.314,352.758z"/>
		<path id="XMLID_811_" d="M392.793,375.725H118.54c-4.143,0-7.5,3.357-7.5,7.5s3.357,7.5,7.5,7.5h274.253
			c4.143,0,7.5-3.357,7.5-7.5S396.936,375.725,392.793,375.725z"/>
		<path id="XMLID_812_" d="M392.793,398.691H118.54c-4.143,0-7.5,3.357-7.5,7.5s3.357,7.5,7.5,7.5h274.253
			c4.143,0,7.5-3.357,7.5-7.5S396.936,398.691,392.793,398.691z"/>
	</g>
</g>
<g>
</g>
<g>
</g>
<g>
</g>
<g>
</g>
<g>
</g>
<g>
</g>
<g>
</g>
<g>
</g>
<g>
</g>
<g>
</g>
<g>
</g>
<g>
</g>
<g>
</g>
<g>
</g>
<g>
</g>
</svg>
