<?xml version="1.0" encoding="iso-8859-1"?>
<!-- Generator: Adobe Illustrator 19.0.0, SVG Export Plug-In . SVG Version: 6.00 Build 0)  -->
<svg version="1.1" id="Capa_1" xmlns="http://www.w3.org/2000/svg" xmlns:xlink="http://www.w3.org/1999/xlink" x="0px" y="0px"
	 viewBox="0 0 512 512" style="enable-background:new 0 0 512 512;" xml:space="preserve">
<g>
	<g>
		<path d="M426,432c-5.52,0-10,4.48-10,10c0,5.52,4.48,10,10,10c5.52,0,10-4.48,10-10C436,436.48,431.52,432,426,432z"/>
	</g>
</g>
<g>
	<g>
		<path d="M266,260c-5.52,0-10,4.48-10,10c0,5.52,4.48,10,10,10c5.52,0,10-4.48,10-10C276,264.48,271.52,260,266,260z"/>
	</g>
</g>
<g>
	<g>
		<path d="M106,340c-5.52,0-10,4.48-10,10c0,5.52,4.48,10,10,10s10-4.48,10-10C116,344.48,111.52,340,106,340z"/>
	</g>
</g>
<g>
	<g>
		<path d="M466,340H366c-5.523,0-10,4.477-10,10v142h-40V190c0-5.523-4.477-10-10-10H206c-5.523,0-10,4.477-10,10v302h-40V270
			c0-5.523-4.477-10-10-10H46c-5.523,0-10,4.477-10,10v232c0,5.523,4.477,10,10,10h420c5.523,0,10-4.477,10-10V350
			C476,344.477,471.523,340,466,340z M136,492h-20V390c0-5.523-4.477-10-10-10s-10,4.477-10,10v102H56V280h80V492z M296,492h-20V310
			c0-5.523-4.477-10-10-10s-10,4.477-10,10v182h-40V200h80V492z M456,492h-20v-10c0-5.523-4.477-10-10-10s-10,4.477-10,10v10h-40
			V360h80V492z"/>
	</g>
</g>
<g>
	<g>
		<path d="M125.006,147.5C131.812,140.326,136,130.646,136,120c0-22.056-17.944-40-40-40c-22.056,0-40,17.944-40,40
			c0,10.646,4.188,20.326,10.994,27.5C48.53,157.742,36,177.432,36,200v10c0,5.523,4.477,10,10,10h100c5.523,0,10-4.477,10-10v-10
			C156,177.432,143.47,157.742,125.006,147.5z M96,100c11.028,0,20,8.972,20,20s-8.972,20-20,20s-20-8.972-20-20S84.972,100,96,100z
			 M56,200c0-22.056,17.944-40,40-40c22.056,0,40,17.944,40,40H56z"/>
	</g>
</g>
<g>
	<g>
		<path d="M285.006,67.5C291.812,60.326,296,50.646,296,40c0-22.056-17.944-40-40-40c-22.056,0-40,17.944-40,40
			c0,10.646,4.188,20.326,10.994,27.5C208.53,77.742,196,97.432,196,120v10c0,5.523,4.477,10,10,10h100c5.523,0,10-4.477,10-10v-10
			C316,97.432,303.47,77.742,285.006,67.5z M256,20c11.028,0,20,8.972,20,20s-8.972,20-20,20s-20-8.972-20-20S244.972,20,256,20z
			 M216,120c0-22.056,17.944-40,40-40c22.056,0,40,17.944,40,40H216z"/>
	</g>
</g>
<g>
	<g>
		<path d="M445.006,227.5C451.812,220.326,456,210.646,456,200c0-22.056-17.944-40-40-40c-22.056,0-40,17.944-40,40
			c0,10.646,4.188,20.326,10.994,27.5C368.53,237.742,356,257.432,356,280v10c0,5.523,4.477,10,10,10h100c5.523,0,10-4.477,10-10
			v-10C476,257.432,463.47,237.742,445.006,227.5z M416,180c11.028,0,20,8.972,20,20s-8.972,20-20,20s-20-8.972-20-20
			S404.972,180,416,180z M376,280c0-22.056,17.944-40,40-40c22.056,0,40,17.944,40,40H376z"/>
	</g>
</g>
<g>
</g>
<g>
</g>
<g>
</g>
<g>
</g>
<g>
</g>
<g>
</g>
<g>
</g>
<g>
</g>
<g>
</g>
<g>
</g>
<g>
</g>
<g>
</g>
<g>
</g>
<g>
</g>
<g>
</g>
</svg>
